<svg width="1440" height="560" viewBox="0 0 1440 560" fill="none" xmlns="http://www.w3.org/2000/svg">
  <defs>
    <linearGradient id="soft" x1="0" y1="0" x2="1" y2="0">
      <stop offset="0" stop-color="#F6F7F9"/>
      <stop offset="1" stop-color="#EFF1F4"/>
    </linearGradient>
    <filter id="blur" x="-20%" y="-20%" width="140%" height="140%" color-interpolation-filters="sRGB">
      <feGaussianBlur stdDeviation="18"/>
    </filter>
  </defs>

  <!-- Right-side soft blobs -->
  <g filter="url(#blur)" opacity="0.9">
    <circle cx="1220" cy="190" r="220" fill="url(#soft)"/>
    <circle cx="1330" cy="300" r="280" fill="#F3F4F6" opacity="0.9"/>
  </g>

  <!-- Bottom wave (subtle) -->
  <path
    d="M0 430C165 485 330 500 520 470C710 440 865 395 1045 420C1225 445 1320 485 1440 505V560H0V430Z"
    fill="#F3F4F6"/>
  <path
    d="M0 455C190 515 365 525 560 495C755 465 900 425 1080 450C1260 475 1340 515 1440 535V560H0V455Z"
    fill="#EEF0F3" opacity="0.9"/>
</svg>
